<svg width="80" height="79" viewBox="0 0 80 79" fill="none" xmlns="http://www.w3.org/2000/svg">
<path d="M48.3333 59.25C46 59.25 44.0278 58.4546 42.4167 56.8636C40.8056 55.2726 40 53.325 40 51.0209C40 48.7167 40.8056 46.7691 42.4167 45.1782C44.0278 43.5872 46 42.7917 48.3333 42.7917C50.6667 42.7917 52.6389 43.5872 54.25 45.1782C55.8611 46.7691 56.6667 48.7167 56.6667 51.0209C56.6667 53.325 55.8611 55.2726 54.25 56.8636C52.6389 58.4546 50.6667 59.25 48.3333 59.25ZM16.6667 72.4167C14.8333 72.4167 13.2644 71.7726 11.96 70.4845C10.6556 69.1964 10.0022 67.646 10 65.8334V19.75C10 17.9396 10.6533 16.3903 11.96 15.1022C13.2667 13.8141 14.8356 13.1689 16.6667 13.1667H20V6.58337H26.6667V13.1667H53.3333V6.58337H60V13.1667H63.3333C65.1667 13.1667 66.7367 13.8119 68.0433 15.1022C69.35 16.3925 70.0022 17.9418 70 19.75V65.8334C70 67.6438 69.3478 69.1942 68.0433 70.4845C66.7389 71.7748 65.1689 72.4189 63.3333 72.4167H16.6667ZM16.6667 65.8334H63.3333V32.9167H16.6667V65.8334Z" fill="#57C3FF"/>
</svg>
