<svg width="72" height="72" viewBox="0 0 72 72" fill="none" xmlns="http://www.w3.org/2000/svg">
<path d="M47.25 6.8197L45.774 8.43745C42.4688 12.0757 39.744 13.7025 37.476 14.7667C35.208 15.8287 33.3022 16.146 31.4303 17.5792C29.4345 19.1092 26.5343 22.0432 25.3125 27.2812C22.6935 27.8527 20.7765 28.8562 19.2645 30.1635C17.7705 31.455 16.6455 32.9242 15.2595 34.524C15.2483 34.542 15.2663 34.5757 15.2595 34.5937C13.2705 36.8797 11.5312 39.3412 8.15625 40.6417L6.75 41.2042V65.25H49.6418C52.101 65.1172 53.8065 63.414 54.8438 61.7332C55.8787 60.0547 56.4525 58.2367 56.7427 56.7427C57.4897 52.9357 58.851 41.976 58.851 41.976L58.923 41.7667V41.5552C58.851 40.0342 58.2255 38.7427 57.4448 37.5457L59.976 30.024L63.9855 23.976L65.1105 22.3582L63.6323 21.024L48.8677 8.22595L47.25 6.8197ZM47.3918 13.0072L59.1323 23.2042L56.0385 27.7717L55.8293 27.9855L55.7573 28.3365L53.7188 34.3822C52.6545 33.9435 51.5588 33.6352 50.3438 33.6802H50.202L36 33.75H33.75V42.4687C33.435 44.9212 32.0715 45.8707 30.375 46.548C29.8125 46.7752 29.7428 46.6515 29.25 46.7572V33.6825C28.881 25.3417 31.851 22.941 34.173 21.1657C34.8142 20.673 36.693 20.1037 39.375 18.846C41.616 17.7907 44.4015 15.8985 47.3918 13.0072ZM24.8918 32.3437C24.8827 32.8545 24.723 33.2145 24.75 33.75V51.75H27C27 51.75 29.4075 51.723 31.9928 50.6947C34.5758 49.6665 37.6965 47.259 38.25 43.0312V38.25L50.3438 38.1802H50.4135C51.4012 38.1261 52.3701 38.4656 53.1081 39.1243C53.846 39.783 54.293 40.7072 54.351 41.6947C54.342 41.7307 54.2385 42.5655 54.2115 42.75H45V47.25H53.649C53.4105 48.9892 53.1922 50.0805 52.9448 51.75H45V56.25H52.2427C51.9769 57.3385 51.5499 58.3813 50.976 59.3437C50.3618 60.345 49.833 60.7229 49.3605 60.75H11.25V43.9447C14.8973 42.0097 17.1652 39.2265 18.6322 37.548C20.1533 35.8065 21.1973 34.488 22.2188 33.6105C22.887 33.039 23.9332 32.7127 24.8918 32.3437Z" fill="#57C3FF"/>
</svg>
