<svg width="81" height="80" viewBox="0 0 81 80" fill="none" xmlns="http://www.w3.org/2000/svg">
<path d="M60.75 36.6667V43.3334H74.25V36.6667H60.75ZM54 58.7C57.24 61.0667 61.4588 64.2 64.8 66.6667C66.15 64.9 67.5 63.1 68.85 61.3334C65.5087 58.8667 61.29 55.7334 58.05 53.3334C56.7 55.1334 55.35 56.9334 54 58.7ZM68.85 18.6667C67.5 16.9 66.15 15.1 64.8 13.3334C61.4588 15.8 57.24 18.9334 54 21.3334C55.35 23.1 56.7 24.9 58.05 26.6667C61.29 24.2667 65.5087 21.1667 68.85 18.6667ZM13.5 30C9.7875 30 6.75 33 6.75 36.6667V43.3334C6.75 47 9.7875 50 13.5 50H16.875V63.3334H23.625V50H27L43.875 60V20L27 30H13.5ZM52.3125 40C52.3125 35.5667 50.355 31.5667 47.25 28.8334V51.1334C50.355 48.4334 52.3125 44.4334 52.3125 40Z" fill="#57C3FF"/>
</svg>
