<svg width="44" height="44" viewBox="0 0 44 44" fill="none" xmlns="http://www.w3.org/2000/svg">
<path d="M37.8026 5.67374V3.34085C37.8026 1.94112 36.7511 1.00796 35.1739 1.00796H14.1438M14.1438 1.00796C13.7568 0.979516 13.3674 1.02753 13.0038 1.14854C12.6402 1.26955 12.3113 1.46056 12.0408 1.70783L1.52575 11.0394C1.18448 11.4432 1 11.9344 1 12.4391V40.6671C1 42.0668 2.0515 43 3.62876 43H35.1739C36.7511 43 37.8026 42.0668 37.8026 40.6671V29.0027M14.1438 1.00796V10.3395C14.1438 11.7393 13.0923 12.6724 11.515 12.6724H1M30.9678 14.5387L38.0655 20.8375M41.22 11.7393C41.7794 12.1771 42.2275 12.7156 42.5344 13.3189C42.8413 13.9222 43 14.5766 43 15.2386C43 15.9006 42.8413 16.5549 42.5344 17.1583C42.2275 17.7616 41.7794 18.3001 41.22 18.7379L23.8702 34.135L14.1438 36.0013L15.9839 27.3696L33.5966 11.7393C34.09 11.2428 34.6967 10.8452 35.3766 10.5728C36.0564 10.3005 36.7938 10.1596 37.5397 10.1596C38.2857 10.1596 39.023 10.3005 39.7029 10.5728C40.3827 10.8452 40.9895 11.2428 41.4829 11.7393H41.22Z" stroke="black" stroke-width="2" stroke-linecap="round" stroke-linejoin="round"/>
</svg>
