<svg width="64" height="64" viewBox="0 0 64 64" fill="none" xmlns="http://www.w3.org/2000/svg">
<path d="M9.33347 21.3333C9.33399 18.8051 9.98806 16.3199 11.2322 14.119C12.4763 11.918 14.2682 10.0761 16.4341 8.77186C18.6 7.46763 21.0662 6.74543 23.5934 6.67532C26.1207 6.60521 28.6232 7.18959 30.858 8.37174C33.0928 9.55389 34.9841 11.2937 36.3483 13.4222C37.7126 15.5508 38.5034 17.9959 38.6441 20.5202C38.7848 23.0445 38.2705 25.5623 37.1513 27.8293C36.032 30.0963 34.3458 32.0355 32.2561 33.4586C36.7561 35.1091 40.6593 38.0685 43.4632 41.956C46.2671 45.8434 47.8435 50.481 47.9895 55.2719C47.9833 55.7885 47.7777 56.2827 47.4157 56.6512C47.0537 57.0197 46.5633 57.2342 46.047 57.2497C45.5306 57.2651 45.0283 57.0805 44.6449 56.7343C44.2614 56.3881 44.0266 55.9072 43.9895 55.3919C43.8307 50.1958 41.6549 45.2657 37.9233 41.6464C34.1916 38.027 29.1973 36.0029 23.9988 36.0029C18.8003 36.0029 13.806 38.027 10.0743 41.6464C6.34269 45.2657 4.16693 50.1958 4.00813 55.3919C3.98143 55.9142 3.75127 56.4052 3.36696 56.7598C2.98264 57.1143 2.47474 57.3043 1.95206 57.289C1.42938 57.2736 0.933498 57.0542 0.570643 56.6777C0.207788 56.3012 0.00682244 55.7975 0.0108001 55.2746C0.15627 50.4832 1.73242 45.845 4.53636 41.9571C7.34031 38.0691 11.2437 35.1093 15.7441 33.4586C13.7677 32.1137 12.1502 30.3056 11.0329 28.1921C9.91547 26.0787 9.33205 23.724 9.33347 21.3333ZM24.0001 10.6666C21.1712 10.6666 18.458 11.7904 16.4577 13.7908C14.4573 15.7912 13.3335 18.5043 13.3335 21.3333C13.3335 24.1623 14.4573 26.8754 16.4577 28.8758C18.458 30.8761 21.1712 32 24.0001 32C26.8291 32 29.5422 30.8761 31.5426 28.8758C33.543 26.8754 34.6668 24.1623 34.6668 21.3333C34.6668 18.5043 33.543 15.7912 31.5426 13.7908C29.5422 11.7904 26.8291 10.6666 24.0001 10.6666ZM46.1068 21.3333C45.7121 21.3333 45.3281 21.36 44.9495 21.4133C44.6851 21.4606 44.4139 21.4542 44.152 21.3945C43.8902 21.3347 43.643 21.2229 43.4254 21.0655C43.2077 20.9082 43.0239 20.7086 42.8851 20.4787C42.7462 20.2488 42.655 19.9933 42.6171 19.7274C42.5791 19.4616 42.595 19.1907 42.664 18.9312C42.7329 18.6716 42.8535 18.4285 43.0184 18.2166C43.1833 18.0046 43.3892 17.828 43.6239 17.6973C43.8585 17.5666 44.1171 17.4845 44.3841 17.456C47.0363 17.0725 49.7407 17.5818 52.0718 18.9038C54.4028 20.2257 56.2281 22.2852 57.2604 24.7582C58.2927 27.2311 58.4734 29.9771 57.7741 32.5641C57.0748 35.151 55.5351 37.4319 53.3975 39.048C56.5398 40.455 59.2079 42.7413 61.0798 45.631C62.9517 48.5207 63.9474 51.8903 63.9468 55.3333C63.9468 55.8637 63.7361 56.3724 63.361 56.7475C62.9859 57.1226 62.4772 57.3333 61.9468 57.3333C61.4164 57.3333 60.9077 57.1226 60.5326 56.7475C60.1575 56.3724 59.9468 55.8637 59.9468 55.3333C59.9465 52.3577 58.9877 49.4613 57.2125 47.0732C55.4373 44.6852 52.9401 42.9324 50.0908 42.0746L48.6668 41.648V37.1786L49.7601 36.6213C51.3808 35.8003 52.6775 34.4572 53.4409 32.8086C54.2044 31.16 54.3899 29.3023 53.9677 27.5353C53.5454 25.7683 52.54 24.1952 51.1137 23.0699C49.6874 21.9446 47.9235 21.3328 46.1068 21.3333Z" fill="#57C3FF"/>
</svg>
