<svg width="43" height="45" viewBox="0 0 43 45" fill="none" xmlns="http://www.w3.org/2000/svg">
<path fill-rule="evenodd" clip-rule="evenodd" d="M11.9444 10.2778C11.9444 7.68455 12.9512 5.19753 14.7432 3.36384C16.5352 1.53016 18.9657 0.5 21.5 0.5C24.0343 0.5 26.4648 1.53016 28.2568 3.36384C30.0488 5.19753 31.0556 7.68455 31.0556 10.2778C31.0556 12.871 30.0488 15.358 28.2568 17.1917C26.4648 19.0254 24.0343 20.0556 21.5 20.0556C18.9657 20.0556 16.5352 19.0254 14.7432 17.1917C12.9512 15.358 11.9444 12.871 11.9444 10.2778ZM11.9444 24.9444C8.77658 24.9444 5.73846 26.2321 3.49845 28.5243C1.25843 30.8164 0 33.9251 0 37.1667C0 39.1116 0.755058 40.9768 2.09907 42.3521C3.44308 43.7274 5.26595 44.5 7.16667 44.5H35.8333C37.7341 44.5 39.5569 43.7274 40.9009 42.3521C42.2449 40.9768 43 39.1116 43 37.1667C43 33.9251 41.7416 30.8164 39.5016 28.5243C37.2615 26.2321 34.2234 24.9444 31.0556 24.9444H11.9444Z" fill="black"/>
</svg>
