<svg width="89" height="89" viewBox="0 0 89 89" fill="none" xmlns="http://www.w3.org/2000/svg">
<g style="mix-blend-mode:plus-darker">
<path d="M55.625 14.8334L77.875 22.25V40.7917H66.75V70.4584C66.75 71.4419 66.3593 72.3851 65.6639 73.0806C64.9684 73.776 64.0252 74.1667 63.0417 74.1667H25.9583C24.9748 74.1667 24.0316 73.776 23.3361 73.0806C22.6407 72.3851 22.25 71.4419 22.25 70.4584V40.7917H11.125V22.25L33.375 14.8334C33.375 17.7839 34.5471 20.6136 36.6334 22.6999C38.7198 24.7863 41.5495 25.9584 44.5 25.9584C47.4505 25.9584 50.2802 24.7863 52.3666 22.6999C54.4529 20.6136 55.625 17.7839 55.625 14.8334Z" stroke="#57C3FF" stroke-width="2" stroke-linecap="round" stroke-linejoin="round"/>
<path d="M38.9375 40.7917H48.2083L42.6458 59.3334" stroke="#57C3FF" stroke-width="2" stroke-linecap="round" stroke-linejoin="round"/>
</g>
</svg>
