<svg width="71" height="71" viewBox="0 0 71 71" fill="none" xmlns="http://www.w3.org/2000/svg">
<path d="M35.4998 29.5833C38.6382 29.5833 41.6481 28.3366 43.8673 26.1174C46.0865 23.8982 47.3332 20.8884 47.3332 17.75C47.3332 14.6116 46.0865 11.6017 43.8673 9.38253C41.6481 7.16335 38.6382 5.91663 35.4998 5.91663C32.3614 5.91663 29.3516 7.16335 27.1324 9.38253C24.9132 11.6017 23.6665 14.6116 23.6665 17.75C23.6665 20.8884 24.9132 23.8982 27.1324 26.1174C29.3516 28.3366 32.3614 29.5833 35.4998 29.5833ZM16.2707 38.4583C18.2322 38.4583 20.1133 37.6791 21.5003 36.2921C22.8873 34.9051 23.6665 33.024 23.6665 31.0625C23.6665 29.101 22.8873 27.2198 21.5003 25.8328C20.1133 24.4458 18.2322 23.6666 16.2707 23.6666C14.3092 23.6666 12.428 24.4458 11.041 25.8328C9.65404 27.2198 8.87484 29.101 8.87484 31.0625C8.87484 33.024 9.65404 34.9051 11.041 36.2921C12.428 37.6791 14.3092 38.4583 16.2707 38.4583ZM62.1248 31.0625C62.1248 33.024 61.3456 34.9051 59.9587 36.2921C58.5717 37.6791 56.6905 38.4583 54.729 38.4583C52.7675 38.4583 50.8863 37.6791 49.4994 36.2921C48.1124 34.9051 47.3332 33.024 47.3332 31.0625C47.3332 29.101 48.1124 27.2198 49.4994 25.8328C50.8863 24.4458 52.7675 23.6666 54.729 23.6666C56.6905 23.6666 58.5717 24.4458 59.9587 25.8328C61.3456 27.2198 62.1248 29.101 62.1248 31.0625ZM35.4998 32.5416C39.4228 32.5416 43.1852 34.1 45.9591 36.874C48.7331 39.648 50.2915 43.4103 50.2915 47.3333V65.0833H20.7082V47.3333C20.7082 43.4103 22.2666 39.648 25.0406 36.874C27.8145 34.1 31.5768 32.5416 35.4998 32.5416ZM14.7915 47.3333C14.7915 45.2832 15.0873 43.304 15.6435 41.4344L15.1406 41.4758C12.6049 41.7542 10.2613 42.9588 8.55907 44.8587C6.85684 46.7585 5.91584 49.2199 5.9165 51.7708V65.0833H14.7915V47.3333ZM65.0832 65.0833V51.7708C65.0835 49.133 64.0771 46.5946 62.2694 44.6737C60.4617 42.7528 57.9891 41.5941 55.3562 41.4344C55.9094 43.304 56.2082 45.2832 56.2082 47.3333V65.0833H65.0832Z" fill="#57C3FF"/>
</svg>
