<svg width="73" height="73" viewBox="0 0 73 73" fill="none" xmlns="http://www.w3.org/2000/svg">
<path d="M47.4668 7.44495L45.9908 9.0627C42.6855 12.7009 39.9608 14.3277 37.6928 15.3919C35.4248 16.4539 33.519 16.7712 31.647 18.2044C29.6513 19.7344 26.751 22.6684 25.5293 27.9064C22.9103 28.4779 20.9933 29.4814 19.4813 30.7887C17.9873 32.0802 16.8623 33.5494 15.4763 35.1492C15.465 35.1672 15.483 35.2009 15.4763 35.2189C13.4873 37.5049 11.748 39.9664 8.37305 41.2669L6.9668 41.8294V65.8752H49.8585C52.3178 65.7424 54.0233 64.0392 55.0605 62.3584C56.0955 60.6799 56.6693 58.8619 56.9595 57.3679C57.7065 53.5609 59.0678 42.6012 59.0678 42.6012L59.1398 42.3919V42.1804C59.0678 40.6594 58.4423 39.3679 57.6615 38.1709L60.1928 30.6492L64.2023 24.6012L65.3273 22.9834L63.849 21.6492L49.0845 8.8512L47.4668 7.44495ZM47.6085 13.6324L59.349 23.8294L56.2553 28.3969L56.046 28.6107L55.974 28.9617L53.9355 35.0074C52.8713 34.5687 51.7755 34.2604 50.5605 34.3054H50.4188L36.2168 34.3752H33.9668V43.0939C33.6518 45.5464 32.2883 46.4959 30.5918 47.1732C30.0293 47.4004 29.9595 47.2767 29.4668 47.3824V34.3077C29.0978 25.9669 32.0678 23.5662 34.3898 21.7909C35.031 21.2982 36.9098 20.7289 39.5918 19.4712C41.8328 18.4159 44.6183 16.5237 47.6085 13.6324ZM25.1085 32.9689C25.0995 33.4797 24.9398 33.8397 24.9668 34.3752V52.3752H27.2168C27.2168 52.3752 29.6243 52.3482 32.2095 51.3199C34.7925 50.2917 37.9133 47.8842 38.4668 43.6564V38.8752L50.5605 38.8054H50.6303C51.618 38.7514 52.5869 39.0908 53.3249 39.7495C54.0628 40.4082 54.5098 41.3325 54.5678 42.3199C54.5588 42.3559 54.4553 43.1907 54.4283 43.3752H45.2168V47.8752H53.8658C53.6273 49.6144 53.409 50.7057 53.1615 52.3752H45.2168V56.8752H52.4595C52.1937 57.9638 51.7667 59.0065 51.1928 59.9689C50.5785 60.9702 50.0498 61.3482 49.5773 61.3752H11.4668V44.5699C15.114 42.6349 17.382 39.8517 18.849 38.1732C20.37 36.4317 21.414 35.1132 22.4355 34.2357C23.1038 33.6642 24.15 33.3379 25.1085 32.9689Z" fill="#57C3FF"/>
</svg>
