<svg width="80" height="80" viewBox="0 0 80 80" fill="none" xmlns="http://www.w3.org/2000/svg">
<path d="M48.3333 59.75C46 59.75 44.0278 58.9545 42.4167 57.3635C40.8056 55.7725 40 53.825 40 51.5208C40 49.2166 40.8056 47.2691 42.4167 45.6781C44.0278 44.0871 46 43.2916 48.3333 43.2916C50.6667 43.2916 52.6389 44.0871 54.25 45.6781C55.8611 47.2691 56.6667 49.2166 56.6667 51.5208C56.6667 53.825 55.8611 55.7725 54.25 57.3635C52.6389 58.9545 50.6667 59.75 48.3333 59.75ZM16.6667 72.9166C14.8333 72.9166 13.2644 72.2726 11.96 70.9844C10.6556 69.6963 10.0022 68.1459 10 66.3333V20.25C10 18.4396 10.6533 16.8903 11.96 15.6021C13.2667 14.314 14.8356 13.6688 16.6667 13.6666H20V7.08331H26.6667V13.6666H53.3333V7.08331H60V13.6666H63.3333C65.1667 13.6666 66.7367 14.3118 68.0433 15.6021C69.35 16.8925 70.0022 18.4418 70 20.25V66.3333C70 68.1437 69.3478 69.6941 68.0433 70.9844C66.7389 72.2748 65.1689 72.9188 63.3333 72.9166H16.6667ZM16.6667 66.3333H63.3333V33.4166H16.6667V66.3333Z" fill="#57C3FF"/>
</svg>
