<svg width="64" height="65" viewBox="0 0 64 65" fill="none" xmlns="http://www.w3.org/2000/svg">
<path d="M9.33347 21.8333C9.33399 19.3051 9.98806 16.8199 11.2322 14.619C12.4763 12.418 14.2682 10.5761 16.4341 9.27186C18.6 7.96763 21.0662 7.24543 23.5934 7.17532C26.1207 7.10521 28.6232 7.68959 30.858 8.87174C33.0928 10.0539 34.9841 11.7937 36.3483 13.9222C37.7126 16.0508 38.5034 18.4959 38.6441 21.0202C38.7848 23.5445 38.2705 26.0623 37.1513 28.3293C36.032 30.5963 34.3458 32.5355 32.2561 33.9586C36.7561 35.6091 40.6593 38.5685 43.4632 42.456C46.2671 46.3434 47.8435 50.981 47.9895 55.7719C47.9833 56.2885 47.7777 56.7827 47.4157 57.1512C47.0537 57.5197 46.5633 57.7342 46.047 57.7497C45.5306 57.7651 45.0283 57.5805 44.6449 57.2343C44.2614 56.8881 44.0266 56.4072 43.9895 55.8919C43.8307 50.6958 41.6549 45.7657 37.9233 42.1464C34.1916 38.527 29.1973 36.5029 23.9988 36.5029C18.8003 36.5029 13.806 38.527 10.0743 42.1464C6.34269 45.7657 4.16693 50.6958 4.00813 55.8919C3.98143 56.4142 3.75127 56.9052 3.36696 57.2598C2.98264 57.6143 2.47474 57.8043 1.95206 57.789C1.42938 57.7736 0.933498 57.5542 0.570643 57.1777C0.207788 56.8012 0.00682244 56.2975 0.0108001 55.7746C0.15627 50.9832 1.73242 46.345 4.53636 42.4571C7.34031 38.5691 11.2437 35.6093 15.7441 33.9586C13.7677 32.6137 12.1502 30.8056 11.0329 28.6921C9.91547 26.5787 9.33205 24.224 9.33347 21.8333ZM24.0001 11.1666C21.1712 11.1666 18.458 12.2904 16.4577 14.2908C14.4573 16.2912 13.3335 19.0043 13.3335 21.8333C13.3335 24.6623 14.4573 27.3754 16.4577 29.3758C18.458 31.3761 21.1712 32.5 24.0001 32.5C26.8291 32.5 29.5422 31.3761 31.5426 29.3758C33.543 27.3754 34.6668 24.6623 34.6668 21.8333C34.6668 19.0043 33.543 16.2912 31.5426 14.2908C29.5422 12.2904 26.8291 11.1666 24.0001 11.1666ZM46.1068 21.8333C45.7121 21.8333 45.3281 21.86 44.9495 21.9133C44.6851 21.9606 44.4139 21.9542 44.152 21.8945C43.8902 21.8347 43.643 21.7229 43.4254 21.5655C43.2077 21.4082 43.0239 21.2086 42.8851 20.9787C42.7462 20.7488 42.655 20.4933 42.6171 20.2274C42.5791 19.9616 42.595 19.6907 42.664 19.4312C42.7329 19.1716 42.8535 18.9285 43.0184 18.7166C43.1833 18.5046 43.3892 18.328 43.6239 18.1973C43.8585 18.0666 44.1171 17.9845 44.3841 17.956C47.0363 17.5725 49.7407 18.0818 52.0718 19.4038C54.4028 20.7257 56.2281 22.7852 57.2604 25.2582C58.2927 27.7311 58.4734 30.4771 57.7741 33.0641C57.0748 35.651 55.5351 37.9319 53.3975 39.548C56.5398 40.955 59.2079 43.2413 61.0798 46.131C62.9517 49.0207 63.9474 52.3903 63.9468 55.8333C63.9468 56.3637 63.7361 56.8724 63.361 57.2475C62.9859 57.6226 62.4772 57.8333 61.9468 57.8333C61.4164 57.8333 60.9077 57.6226 60.5326 57.2475C60.1575 56.8724 59.9468 56.3637 59.9468 55.8333C59.9465 52.8577 58.9877 49.9613 57.2125 47.5732C55.4373 45.1852 52.9401 43.4324 50.0908 42.5746L48.6668 42.148V37.6786L49.7601 37.1213C51.3808 36.3003 52.6775 34.9572 53.4409 33.3086C54.2044 31.66 54.3899 29.8023 53.9677 28.0353C53.5454 26.2683 52.54 24.6952 51.1137 23.5699C49.6874 22.4446 47.9235 21.8328 46.1068 21.8333Z" fill="#57C3FF"/>
</svg>
