<svg width="71" height="72" viewBox="0 0 71 72" fill="none" xmlns="http://www.w3.org/2000/svg">
<path d="M35.5003 30.0834C38.6387 30.0834 41.6486 28.8366 43.8678 26.6175C46.0869 24.3983 47.3337 21.3884 47.3337 18.25C47.3337 15.1116 46.0869 12.1018 43.8678 9.88259C41.6486 7.66341 38.6387 6.41669 35.5003 6.41669C32.3619 6.41669 29.3521 7.66341 27.1329 9.88259C24.9137 12.1018 23.667 15.1116 23.667 18.25C23.667 21.3884 24.9137 24.3983 27.1329 26.6175C29.3521 28.8366 32.3619 30.0834 35.5003 30.0834ZM16.2712 38.9584C18.2327 38.9584 20.1138 38.1792 21.5008 36.7922C22.8878 35.4052 23.667 33.524 23.667 31.5625C23.667 29.601 22.8878 27.7199 21.5008 26.3329C20.1138 24.9459 18.2327 24.1667 16.2712 24.1667C14.3097 24.1667 12.4285 24.9459 11.0415 26.3329C9.65453 27.7199 8.87533 29.601 8.87533 31.5625C8.87533 33.524 9.65453 35.4052 11.0415 36.7922C12.4285 38.1792 14.3097 38.9584 16.2712 38.9584ZM62.1253 31.5625C62.1253 33.524 61.3461 35.4052 59.9591 36.7922C58.5722 38.1792 56.691 38.9584 54.7295 38.9584C52.768 38.9584 50.8868 38.1792 49.4999 36.7922C48.1129 35.4052 47.3337 33.524 47.3337 31.5625C47.3337 29.601 48.1129 27.7199 49.4999 26.3329C50.8868 24.9459 52.768 24.1667 54.7295 24.1667C56.691 24.1667 58.5722 24.9459 59.9591 26.3329C61.3461 27.7199 62.1253 29.601 62.1253 31.5625ZM35.5003 33.0417C39.4233 33.0417 43.1856 34.6001 45.9596 37.3741C48.7336 40.148 50.292 43.9104 50.292 47.8334V65.5834H20.7087V47.8334C20.7087 43.9104 22.2671 40.148 25.041 37.3741C27.815 34.6001 31.5773 33.0417 35.5003 33.0417ZM14.792 47.8334C14.792 45.7832 15.0878 43.8041 15.644 41.9344L15.1411 41.9759C12.6054 42.2543 10.2618 43.4589 8.55956 45.3588C6.85733 47.2586 5.91633 49.72 5.91699 52.2709V65.5834H14.792V47.8334ZM65.0837 65.5834V52.2709C65.084 49.6331 64.0776 47.0947 62.2699 45.1738C60.4622 43.2528 57.9896 42.0942 55.3567 41.9344C55.9099 43.8041 56.2087 45.7832 56.2087 47.8334V65.5834H65.0837Z" fill="#57C3FF"/>
</svg>
