<svg width="82" height="81" viewBox="0 0 82 81" fill="none" xmlns="http://www.w3.org/2000/svg">
<path d="M60.9668 37.2918V43.9585H74.4668V37.2918H60.9668ZM54.2168 59.3252C57.4568 61.6918 61.6755 64.8252 65.0168 67.2918C66.3668 65.5252 67.7168 63.7252 69.0668 61.9585C65.7255 59.4918 61.5068 56.3585 58.2668 53.9585C56.9168 55.7585 55.5668 57.5585 54.2168 59.3252ZM69.0668 19.2918C67.7168 17.5252 66.3668 15.7252 65.0168 13.9585C61.6755 16.4252 57.4568 19.5585 54.2168 21.9585C55.5668 23.7252 56.9168 25.5252 58.2668 27.2918C61.5068 24.8918 65.7255 21.7918 69.0668 19.2918ZM13.7168 30.6252C10.0043 30.6252 6.9668 33.6252 6.9668 37.2918V43.9585C6.9668 47.6252 10.0043 50.6252 13.7168 50.6252H17.0918V63.9585H23.8418V50.6252H27.2168L44.0918 60.6252V20.6252L27.2168 30.6252H13.7168ZM52.5293 40.6252C52.5293 36.1918 50.5718 32.1918 47.4668 29.4585V51.7585C50.5718 49.0585 52.5293 45.0585 52.5293 40.6252Z" fill="#57C3FF"/>
</svg>
