<svg width="89" height="90" viewBox="0 0 89 90" fill="none" xmlns="http://www.w3.org/2000/svg">
<g style="mix-blend-mode:plus-darker">
<path d="M55.625 15.3333L77.875 22.75V41.2916H66.75V70.9583C66.75 71.9418 66.3593 72.8851 65.6639 73.5805C64.9684 74.2759 64.0252 74.6666 63.0417 74.6666H25.9583C24.9748 74.6666 24.0316 74.2759 23.3361 73.5805C22.6407 72.8851 22.25 71.9418 22.25 70.9583V41.2916H11.125V22.75L33.375 15.3333C33.375 18.2838 34.5471 21.1135 36.6334 23.1999C38.7198 25.2862 41.5495 26.4583 44.5 26.4583C47.4505 26.4583 50.2802 25.2862 52.3666 23.1999C54.4529 21.1135 55.625 18.2838 55.625 15.3333Z" stroke="#57C3FF" stroke-width="2" stroke-linecap="round" stroke-linejoin="round"/>
<path d="M38.9375 41.2916H48.2083L42.6458 59.8333" stroke="#57C3FF" stroke-width="2" stroke-linecap="round" stroke-linejoin="round"/>
</g>
</svg>
